<?xml version="1.0" encoding="utf-8"?>
<!-- Generator: Adobe Illustrator 24.3.0, SVG Export Plug-In . SVG Version: 6.00 Build 0)  -->
<svg version="1.1" id="Layer_1" xmlns="http://www.w3.org/2000/svg" xmlns:xlink="http://www.w3.org/1999/xlink" x="0px" y="0px"
	 viewBox="0 0 16 16" style="enable-background:new 0 0 16 16;" xml:space="preserve">
<style type="text/css">
	.st0{fill:#006830;}
	.st1{opacity:0.25;fill:#FFFFFF;}
	.st2{opacity:0.25;}
	.st3{fill:#D6E000;}
	.st4{fill:#FFFFFF;}
	.st5{fill:#6BC62A;}
	.st6{opacity:0.5;fill:#FFFFFF;}
	.st7{fill:#00B53E;}
	.st8{fill:#00923D;}
</style>
<g>
	<g>
		<g>
			<path class="st0" d="M7.7,12.4c0,0.2-0.1,0.4-0.2,0.5c-0.3,0.3-0.7,0.3-1,0c-0.1-0.1-0.2-0.3-0.2-0.5c0-0.1,0-0.3,0.1-0.4
				c0-0.1,0.1-0.1,0.1-0.2c0.1-0.1,0.3-0.2,0.5-0.2c0.2,0,0.4,0.1,0.5,0.2c0,0,0.1,0.1,0.1,0.2C7.7,12.1,7.7,12.3,7.7,12.4z"/>
			<path class="st1" d="M6.3,12.7c0-0.1,0.1-0.1,0.1-0.2c0.3-0.3,0.7-0.3,1,0c0,0,0.1,0.1,0.1,0.2c0,0.1-0.1,0.1-0.1,0.2
				c-0.3,0.3-0.7,0.3-1,0C6.4,12.9,6.4,12.8,6.3,12.7z"/>
			<path class="st2" d="M7.6,12H6.3c0-0.1,0.1-0.1,0.1-0.2c0.1-0.1,0.3-0.2,0.5-0.2c0.2,0,0.4,0.1,0.5,0.2C7.5,11.9,7.6,12,7.6,12z"
				/>
		</g>
		<g>
			<path class="st0" d="M11.9,12.4c0,0.2-0.1,0.4-0.2,0.5c-0.3,0.3-0.7,0.3-1,0c-0.1-0.1-0.2-0.3-0.2-0.5c0-0.1,0-0.3,0.1-0.4
				c0-0.1,0.1-0.1,0.1-0.2c0.1-0.1,0.3-0.2,0.5-0.2c0.2,0,0.4,0.1,0.5,0.2c0,0,0.1,0.1,0.1,0.2C11.9,12.1,11.9,12.3,11.9,12.4z"/>
			<path class="st1" d="M10.5,12.7c0-0.1,0.1-0.1,0.1-0.2c0.3-0.3,0.7-0.3,1,0c0,0,0.1,0.1,0.1,0.2c0,0.1-0.1,0.1-0.1,0.2
				c-0.3,0.3-0.7,0.3-1,0C10.6,12.9,10.6,12.8,10.5,12.7z"/>
			<path class="st2" d="M11.8,12h-1.3c0-0.1,0.1-0.1,0.1-0.2c0.1-0.1,0.3-0.2,0.5-0.2c0.2,0,0.4,0.1,0.5,0.2
				C11.7,11.9,11.8,12,11.8,12z"/>
		</g>
	</g>
	<g>
		<g>
			<g>
				<path class="st0" d="M4.6,4.3L4.2,4.7L3.9,5.1l-1,1c-0.3-0.3-0.4-0.6-0.4-1l0.4-0.4l0.4-0.4l1-1C4.4,3.6,4.6,3.9,4.6,4.3z"/>
				<polygon class="st2" points="4.6,4.3 4.2,4.7 2.8,4.7 3.2,4.3 				"/>
			</g>
			<g>
				<path class="st0" d="M14.4,8.7l-1.6,0.4l-1.6,0.4l-5.7,1.3c0,0,0,0,0,0C5.1,10.5,4.8,10,4.8,9.5L8,8.7l5.7-1.3
					C14.1,7.7,14.4,8.2,14.4,8.7z"/>
				<polygon class="st2" points="14.4,8.7 12.8,9.1 6.4,9.1 8,8.7 				"/>
			</g>
			<g>
				<path class="st0" d="M15.7,6.5l-2,0.4l-2,0.4L4.5,8.6C4.1,8.3,3.7,7.8,3.7,7.3l2-0.4l2-0.4l7.2-1.3C15.4,5.5,15.7,6,15.7,6.5z"
					/>
				<polygon class="st2" points="15.7,6.5 13.7,6.9 5.7,6.9 7.7,6.5 				"/>
			</g>
		</g>
		<g>
			<g>
				<path class="st3" d="M4.6,4.3H1C0.6,4.3,0.3,4,0.3,3.6c0-0.2,0.1-0.4,0.2-0.5C0.7,3,0.8,2.9,1,2.9h2.1c0.4,0,0.8,0.2,1,0.4
					c0.1,0.1,0.2,0.2,0.2,0.3C4.5,3.8,4.6,4.1,4.6,4.3z"/>
				<path class="st4" d="M4.4,3.6H0.3c0-0.2,0.1-0.4,0.2-0.5C0.7,3,0.8,2.9,1,2.9h2.1c0.4,0,0.8,0.2,1,0.4C4.3,3.4,4.3,3.5,4.4,3.6z
					"/>
			</g>
			<g>
				<path class="st5" d="M15.7,6.5H3.9c-0.4,0-0.8-0.2-1-0.4C2.8,6,2.7,5.9,2.7,5.8C2.5,5.6,2.5,5.3,2.5,5.1h11.8
					c0.2,0,0.4,0.1,0.6,0.1c0.3,0.1,0.5,0.3,0.6,0.6C15.6,6,15.7,6.3,15.7,6.5z"/>
				<path class="st6" d="M15.5,5.8H2.7C2.5,5.6,2.5,5.3,2.5,5.1h11.8c0.2,0,0.4,0.1,0.6,0.1C15.1,5.4,15.3,5.6,15.5,5.8z"/>
			</g>
			<g>
				<path class="st7" d="M14.4,8.7H5.2C5,8.7,4.7,8.7,4.5,8.6C4.3,8.5,4.1,8.3,3.9,8C3.8,7.8,3.7,7.5,3.7,7.3H13
					c0.3,0,0.5,0.1,0.7,0.2c0.2,0.1,0.4,0.3,0.6,0.6C14.3,8.2,14.4,8.5,14.4,8.7z"/>
				<path class="st6" d="M14.2,8H3.9C3.8,7.8,3.7,7.5,3.7,7.3H13c0.3,0,0.5,0.1,0.7,0.2C13.9,7.6,14.1,7.8,14.2,8z"/>
			</g>
			<g>
				<path class="st8" d="M13.4,10.2c0,0.4-0.3,0.7-0.7,0.7H6.2c-0.3,0-0.5-0.1-0.7-0.2c0,0,0,0,0,0c-0.2-0.1-0.4-0.3-0.6-0.6
					C4.9,10,4.8,9.7,4.8,9.5h7.8C13,9.5,13.4,9.8,13.4,10.2z"/>
				<path class="st6" d="M13.4,10.2H5C4.9,10,4.8,9.7,4.8,9.5h7.8C13,9.5,13.4,9.8,13.4,10.2z"/>
			</g>
		</g>
	</g>
</g>
</svg>
